<?xml version="1.0" encoding="utf-8"?>
<!-- Generator: Adobe Illustrator 19.1.0, SVG Export Plug-In . SVG Version: 6.00 Build 0)  -->
<svg version="1.1" id="Layer_1" xmlns="http://www.w3.org/2000/svg" xmlns:xlink="http://www.w3.org/1999/xlink" x="0px" y="0px"
	 viewBox="-355 196.3 440 256.7" style="enable-background:new -355 196.3 440 256.7;" xml:space="preserve">
<style type="text/css">
	.st0{fill:#404447;}
	.st1{fill:#BDC2C7;}
	.st2{fill:#E74C3C;stroke:#C13C2B;stroke-width:0.5;stroke-miterlimit:10;}
	.st3{fill:#F0C419;stroke:#F39D20;stroke-width:0.5;stroke-miterlimit:10;}
	.st4{fill:#4BB96D;stroke:#20AF5F;stroke-width:0.5;stroke-miterlimit:10;}
	.st5{fill:#FCB716;}
	.st6{fill:#6CB2E2;}
	.st7{fill:none;stroke:#FCB716;stroke-width:5;stroke-miterlimit:10;}
	.st8{fill:none;stroke:#6CB2E2;stroke-width:5;stroke-miterlimit:10;}
	.st9{enable-background:new    ;}
</style>
<path class="st0" d="M85,208.6v232.1c0,6.8-5.5,12.3-12.3,12.3h-415.4c-6.8,0-12.3-5.5-12.3-12.3V208.6c0-6.8,5.5-12.3,12.3-12.3
	H72.8C79.5,196.3,85,201.8,85,208.6z"/>
<path class="st1" d="M85,208.6V222h-440v-13.4c0-6.8,5.5-12.3,12.3-12.3H72.8C79.5,196.3,85,201.8,85,208.6z"/>
<circle class="st2" cx="-339" cy="209.1" r="6"/>
<circle class="st3" cx="-321.7" cy="209.1" r="6"/>
<circle class="st4" cx="-304.3" cy="209.1" r="6"/>
<g>
	<g>
		<path class="st5" d="M-268,274.7v-7.4h30.6v7.4h-10.7v33.5h10.7v7.5H-268v-7.5h10.7v-33.5H-268z"/>
		<path class="st5" d="M-199.7,315.7v-24.5c0-4.1-1.5-6.2-4.6-6.2c-1.5,0-3,0.6-4.4,1.9c-1.4,1.2-2.9,2.9-4.4,5v23.8h-9V278h7.8
			l0.2,5.6c0.8-1,1.6-1.8,2.4-2.6c0.8-0.8,1.7-1.5,2.7-2c1-0.6,2-1,3.1-1.3s2.4-0.4,3.7-0.4c1.9,0,3.6,0.3,5,0.9s2.6,1.5,3.6,2.7
			c1,1.2,1.7,2.5,2.2,4.2c0.5,1.6,0.7,3.4,0.7,5.4v25.3h-9V315.7z"/>
	</g>
	<g>
		<path class="st6" d="M-138.2,301.1c0,2.6-0.5,4.9-1.5,6.9s-2.3,3.6-4.1,4.8c-1.8,1.3-3.8,2.2-6.3,2.8c-2.4,0.6-5.1,0.9-7.9,0.9
			c-2.5,0-5-0.1-7.4-0.4c-2.4-0.3-4.7-0.8-7-1.5v-9c1.1,0.4,2.3,0.8,3.6,1.1c1.2,0.3,2.5,0.6,3.7,0.9c1.2,0.3,2.5,0.5,3.7,0.6
			c1.2,0.1,2.4,0.2,3.6,0.2c1.7,0,3.2-0.1,4.4-0.4c1.2-0.3,2.2-0.7,3-1.2s1.3-1.1,1.7-1.9c0.3-0.7,0.5-1.5,0.5-2.4
			c0-1.2-0.3-2.2-1-3c-0.7-0.8-1.6-1.5-2.7-2.1c-1.1-0.6-2.4-1.2-3.8-1.7c-1.4-0.5-2.9-1-4.3-1.6c-1.5-0.6-2.9-1.2-4.3-1.9
			c-1.4-0.7-2.7-1.6-3.8-2.7s-2-2.3-2.7-3.8s-1-3.2-1-5.3c0-1.9,0.3-3.7,1-5.4s1.8-3.2,3.3-4.5c1.5-1.3,3.4-2.3,5.7-3
			c2.3-0.8,5.1-1.1,8.4-1.1c1,0,2,0,3,0.1c1,0.1,2.1,0.2,3.1,0.3s2,0.3,3,0.5c1,0.2,1.8,0.4,2.6,0.6v8.4c-0.8-0.3-1.7-0.6-2.6-0.8
			c-0.9-0.2-1.9-0.5-2.9-0.6c-1-0.2-2-0.3-3-0.4c-1-0.1-2-0.1-2.9-0.1c-1.6,0-3,0.1-4.1,0.4s-2,0.6-2.7,1.1s-1.2,1-1.6,1.7
			c-0.3,0.7-0.5,1.4-0.5,2.2c0,1,0.3,1.9,1,2.6c0.7,0.7,1.6,1.4,2.7,2c1.1,0.6,2.4,1.1,3.8,1.6c1.4,0.5,2.9,1.1,4.4,1.6
			c1.5,0.6,3,1.2,4.4,2c1.4,0.7,2.7,1.6,3.8,2.7c1.1,1.1,2,2.3,2.7,3.8C-138.5,297.4-138.2,299.1-138.2,301.1z"/>
		<path class="st6" d="M-90.7,296.2c0,3.5-0.5,6.4-1.5,9c-1,2.5-2.3,4.6-4.1,6.3c-1.7,1.7-3.8,2.9-6.2,3.7c-2.4,0.8-5,1.2-7.7,1.2
			c-0.9,0-1.9-0.1-2.8-0.2c-0.9-0.1-1.8-0.3-2.6-0.5v14.7h-9V278h7.8l0.2,5.6c0.8-1,1.6-1.8,2.4-2.6c0.8-0.8,1.7-1.5,2.7-2
			c1-0.6,2-1,3.1-1.3s2.4-0.4,3.7-0.4c2.2,0,4.2,0.4,5.9,1.3c1.7,0.9,3.2,2.2,4.4,3.8c1.2,1.6,2.1,3.6,2.7,6
			C-91,290.7-90.7,293.3-90.7,296.2z M-100.2,296.6c0-2.1-0.1-3.8-0.4-5.3c-0.3-1.5-0.7-2.7-1.3-3.6s-1.2-1.6-2-2.1
			c-0.8-0.4-1.7-0.6-2.8-0.6c-1.5,0-3,0.6-4.4,1.9c-1.4,1.2-2.9,2.9-4.4,5v16.4c0.7,0.3,1.6,0.5,2.6,0.7c1,0.2,2.1,0.3,3.2,0.3
			c1.4,0,2.7-0.3,3.9-0.9s2.2-1.4,3-2.5s1.5-2.4,1.9-4C-100.4,300.3-100.2,298.5-100.2,296.6z"/>
		<path class="st6" d="M-45.5,294c0,0.6,0,1.4-0.1,2.4c0,1-0.1,1.9-0.2,2.8h-24.8c0,1.7,0.3,3.1,0.8,4.4c0.5,1.3,1.2,2.3,2.2,3.2
			c0.9,0.9,2,1.5,3.3,1.9s2.7,0.7,4.3,0.7c1.8,0,3.8-0.1,5.9-0.4c2.1-0.3,4.3-0.7,6.5-1.4v7.2c-1,0.3-2,0.5-3.2,0.7
			c-1.1,0.2-2.3,0.4-3.5,0.6s-2.4,0.3-3.6,0.4s-2.4,0.1-3.5,0.1c-2.9,0-5.4-0.4-7.7-1.2c-2.3-0.8-4.2-2-5.8-3.6
			c-1.6-1.6-2.8-3.6-3.6-5.9c-0.8-2.3-1.3-5.1-1.3-8.2s0.4-5.8,1.3-8.4c0.8-2.5,2-4.7,3.6-6.4c1.5-1.8,3.4-3.2,5.6-4.2
			s4.6-1.5,7.3-1.5c2.7,0,5,0.4,7.1,1.2c2.1,0.8,3.8,2,5.2,3.5s2.4,3.2,3.2,5.3S-45.5,291.5-45.5,294z M-54.7,292.7
			c0-1.5-0.2-2.8-0.6-3.9s-0.9-2-1.6-2.7c-0.7-0.7-1.5-1.2-2.4-1.6c-0.9-0.3-1.9-0.5-2.9-0.5c-2.3,0-4.1,0.8-5.6,2.3
			s-2.3,3.7-2.6,6.4C-70.4,292.7-54.7,292.7-54.7,292.7z"/>
		<path class="st6" d="M-1.5,314.2c-1.8,0.7-3.6,1.2-5.5,1.6s-3.9,0.5-6,0.5c-3,0-5.7-0.4-8-1.2c-2.4-0.8-4.4-2-6-3.6
			c-1.7-1.6-2.9-3.6-3.8-6c-0.9-2.4-1.3-5.1-1.3-8.2c0-3,0.5-5.7,1.4-8.2c1-2.4,2.3-4.5,4-6.3c1.7-1.8,3.8-3.1,6.2-4
			c2.4-0.9,5.1-1.4,8.1-1.4c2.4,0,4.5,0.1,6.2,0.4c1.7,0.3,3.2,0.6,4.5,1v8.8c-1.5-0.8-3.2-1.4-5-1.8c-1.8-0.4-3.5-0.6-5.1-0.6
			c-1.7,0-3.2,0.3-4.5,0.9s-2.5,1.4-3.4,2.4s-1.6,2.2-2.1,3.7c-0.5,1.4-0.7,3-0.7,4.8s0.3,3.4,0.8,4.9c0.5,1.4,1.3,2.6,2.2,3.7
			s2.1,1.8,3.4,2.3s2.8,0.8,4.4,0.8c0.8,0,1.6-0.1,2.5-0.2c0.9-0.1,1.8-0.3,2.6-0.5c0.9-0.2,1.7-0.5,2.6-0.7
			c0.9-0.3,1.6-0.6,2.4-0.9L-1.5,314.2L-1.5,314.2z"/>
	</g>
</g>
<g>
	<polyline class="st7" points="-275.5,328.9 -275.5,340.2 -183.1,340.2 -183.1,328.9 	"/>
	<polyline class="st8" points="-176,328.9 -176,340.2 2.1,340.2 2.1,328.9 	"/>
	<line class="st7" x1="-229.3" y1="340.2" x2="-229.3" y2="358.5"/>
	<line class="st8" x1="-87" y1="340.2" x2="-87" y2="358.5"/>
</g>
<g>
	<g class="st9">
		<path class="st5" d="M-319.9,367.6c-0.8,0-1.4,0.1-1.8,0.3c-0.4,0.2-0.6,0.5-0.6,1c0,0.3,0.1,0.5,0.2,0.6s0.2,0.3,0.4,0.5
			c0.1,0.1,0.2,0.3,0.4,0.5c0.1,0.2,0.2,0.4,0.2,0.7c0,0.2,0,0.4-0.1,0.6c-0.1,0.2-0.2,0.4-0.3,0.5c-0.1,0.2-0.3,0.3-0.6,0.4
			c-0.2,0.1-0.5,0.1-0.7,0.1c-0.3,0-0.6-0.1-0.9-0.2c-0.3-0.1-0.5-0.3-0.7-0.6c-0.2-0.2-0.3-0.5-0.4-0.9c-0.1-0.3-0.1-0.7-0.1-1
			c0-0.6,0.1-1.2,0.3-1.8s0.6-1,1-1.4s1-0.7,1.7-0.9c0.7-0.2,1.4-0.3,2.3-0.3V367.6z M-313.9,367.6c-0.8,0-1.4,0.1-1.8,0.3
			c-0.4,0.2-0.6,0.5-0.6,1c0,0.3,0.1,0.5,0.2,0.6c0.1,0.2,0.2,0.3,0.4,0.5c0.1,0.1,0.2,0.3,0.4,0.5c0.1,0.2,0.2,0.4,0.2,0.7
			c0,0.2,0,0.4-0.1,0.6c-0.1,0.2-0.2,0.4-0.3,0.5c-0.1,0.2-0.3,0.3-0.5,0.4c-0.2,0.1-0.5,0.1-0.7,0.1c-0.3,0-0.6-0.1-0.9-0.2
			c-0.3-0.1-0.5-0.3-0.7-0.6c-0.2-0.2-0.3-0.5-0.4-0.9c-0.1-0.3-0.1-0.7-0.1-1c0-0.6,0.1-1.2,0.3-1.8c0.2-0.5,0.6-1,1-1.4
			s1-0.7,1.7-0.9s1.4-0.3,2.3-0.3V367.6z"/>
		<path class="st5" d="M-311.5,369.6v-2.3h9.5v2.3h-3.3v10.4h3.3v2.3h-9.5v-2.3h3.3v-10.4H-311.5z"/>
		<path class="st5" d="M-291.8,382.3v-7.6c0-1.3-0.5-1.9-1.4-1.9c-0.5,0-0.9,0.2-1.4,0.6c-0.4,0.4-0.9,0.9-1.4,1.6v7.4h-2.8v-11.7
			h2.4l0.1,1.7c0.2-0.3,0.5-0.6,0.7-0.8c0.3-0.2,0.5-0.5,0.8-0.6c0.3-0.2,0.6-0.3,1-0.4c0.3-0.1,0.7-0.1,1.2-0.1
			c0.6,0,1.1,0.1,1.6,0.3c0.4,0.2,0.8,0.5,1.1,0.8c0.3,0.4,0.5,0.8,0.7,1.3c0.1,0.5,0.2,1.1,0.2,1.7v7.8H-291.8z"/>
		<path class="st5" d="M-275.4,368.4c-0.3-0.1-0.7-0.2-1.2-0.3c-0.5-0.1-0.9-0.1-1.4-0.1c-0.3,0-0.6,0-0.9,0.1s-0.5,0.2-0.7,0.4
			c-0.2,0.2-0.4,0.4-0.5,0.7c-0.1,0.3-0.2,0.7-0.2,1.1v1.9h4.6v2.2h-4.6v7.8h-2.8v-7.8h-3.4v-2.2h3.4v-1.8c0-0.8,0.1-1.5,0.4-2.1
			s0.6-1.1,1-1.5c0.4-0.4,1-0.7,1.6-0.8s1.3-0.3,2.1-0.3c0.5,0,1,0,1.4,0.1c0.5,0.1,0.9,0.1,1.3,0.2V368.4z"/>
		<path class="st5" d="M-265.4,375.1c0-0.4,0-0.8-0.1-1.1c-0.1-0.3-0.1-0.6-0.3-0.8c-0.1-0.2-0.3-0.3-0.5-0.4
			c-0.2-0.1-0.4-0.1-0.6-0.1c-0.4,0-0.8,0.2-1.3,0.5c-0.4,0.3-0.9,0.9-1.5,1.7v7.4h-2.9v-11.7h2.5l0.1,1.7c0.2-0.3,0.4-0.6,0.6-0.8
			c0.2-0.2,0.5-0.4,0.8-0.6s0.6-0.3,1-0.4s0.8-0.1,1.2-0.1c0.6,0,1.1,0.1,1.6,0.3c0.5,0.2,0.8,0.5,1.1,0.9s0.5,0.9,0.7,1.5
			c0.1,0.6,0.2,1.3,0.2,2.1H-265.4z"/>
		<path class="st5" d="M-252.7,382.3l-0.1-1.5c-0.2,0.3-0.5,0.5-0.8,0.7c-0.3,0.2-0.6,0.4-0.9,0.6c-0.3,0.2-0.7,0.3-1,0.4
			s-0.8,0.1-1.2,0.1c-0.6,0-1.1-0.1-1.6-0.3s-0.8-0.4-1.1-0.7c-0.3-0.3-0.5-0.7-0.7-1.1s-0.2-0.9-0.2-1.5c0-0.6,0.1-1.1,0.3-1.5
			c0.2-0.5,0.6-0.9,1.1-1.2c0.5-0.3,1.1-0.6,1.8-0.8c0.7-0.2,1.6-0.3,2.5-0.3h1.5v-0.7c0-0.3,0-0.6-0.1-0.8
			c-0.1-0.2-0.2-0.4-0.4-0.6c-0.2-0.2-0.4-0.3-0.7-0.4c-0.3-0.1-0.7-0.1-1.1-0.1c-0.7,0-1.4,0.1-2,0.2c-0.7,0.2-1.3,0.4-1.9,0.7
			v-2.2c0.6-0.2,1.2-0.4,1.9-0.6c0.7-0.1,1.5-0.2,2.3-0.2c0.9,0,1.6,0.1,2.2,0.2c0.6,0.2,1.1,0.4,1.5,0.7c0.4,0.3,0.7,0.7,0.9,1.2
			c0.2,0.5,0.3,1.1,0.3,1.7v8H-252.7z M-253.1,377.1h-1.7c-0.5,0-0.9,0-1.2,0.1c-0.3,0.1-0.6,0.2-0.8,0.4c-0.2,0.2-0.4,0.3-0.5,0.6
			c-0.1,0.2-0.1,0.4-0.1,0.7c0,0.5,0.2,0.8,0.5,1.1c0.3,0.2,0.7,0.4,1.2,0.4c0.4,0,0.8-0.1,1.2-0.4c0.4-0.3,0.9-0.7,1.4-1.2V377.1z"
			/>
		<path class="st5" d="M-237.5,378.8c0,0.7-0.1,1.2-0.4,1.7c-0.3,0.5-0.7,0.9-1.2,1.1c-0.5,0.3-1,0.5-1.7,0.6
			c-0.6,0.1-1.2,0.2-1.9,0.2c-0.9,0-1.6,0-2.3-0.1c-0.7-0.1-1.3-0.2-1.9-0.3v-2.5c0.7,0.3,1.4,0.5,2.1,0.6s1.4,0.2,2,0.2
			c0.7,0,1.3-0.1,1.6-0.3c0.4-0.2,0.5-0.5,0.5-0.9c0-0.2,0-0.3-0.1-0.5c-0.1-0.1-0.2-0.3-0.4-0.4c-0.2-0.1-0.5-0.3-0.9-0.4
			c-0.4-0.1-0.9-0.3-1.5-0.5c-0.6-0.2-1.1-0.3-1.5-0.5c-0.4-0.2-0.8-0.4-1.1-0.7c-0.3-0.3-0.5-0.6-0.6-1c-0.1-0.4-0.2-0.8-0.2-1.3
			c0-0.5,0.1-0.9,0.3-1.3c0.2-0.4,0.5-0.8,1-1.1c0.4-0.3,1-0.6,1.6-0.8s1.4-0.3,2.2-0.3c0.7,0,1.4,0,1.9,0.1
			c0.6,0.1,1.1,0.2,1.5,0.3v2.3c-0.7-0.2-1.3-0.4-1.9-0.5s-1.2-0.1-1.7-0.1c-0.6,0-1,0.1-1.4,0.3c-0.3,0.2-0.5,0.5-0.5,0.9
			c0,0.2,0,0.3,0.1,0.5c0.1,0.1,0.2,0.3,0.4,0.4s0.5,0.3,0.8,0.4s0.8,0.3,1.4,0.5c0.7,0.2,1.2,0.4,1.7,0.6c0.5,0.2,0.8,0.5,1.1,0.7
			c0.3,0.3,0.5,0.6,0.6,0.9C-237.6,378-237.5,378.4-237.5,378.8z"/>
		<path class="st5" d="M-224.6,382.1c-0.5,0.1-1,0.2-1.5,0.3c-0.5,0.1-1,0.1-1.5,0.1c-0.8,0-1.4-0.1-2-0.2c-0.6-0.2-1-0.4-1.4-0.7
			c-0.4-0.3-0.6-0.7-0.8-1.3c-0.2-0.5-0.3-1.1-0.3-1.8v-5.7h-3.1v-2.2h3.1v-3l2.9-0.7v3.7h4.5v2.2h-4.5v5.5c0,0.7,0.2,1.2,0.5,1.5
			c0.3,0.3,0.8,0.5,1.5,0.5c0.5,0,0.9,0,1.3-0.1c0.4-0.1,0.8-0.2,1.2-0.3V382.1z"/>
		<path class="st5" d="M-213.8,375.1c0-0.4,0-0.8-0.1-1.1c-0.1-0.3-0.1-0.6-0.3-0.8c-0.1-0.2-0.3-0.3-0.5-0.4
			c-0.2-0.1-0.4-0.1-0.6-0.1c-0.4,0-0.8,0.2-1.3,0.5c-0.4,0.3-0.9,0.9-1.5,1.7v7.4h-2.9v-11.7h2.5l0.1,1.7c0.2-0.3,0.4-0.6,0.6-0.8
			c0.2-0.2,0.5-0.4,0.8-0.6s0.6-0.3,1-0.4s0.8-0.1,1.2-0.1c0.6,0,1.1,0.1,1.6,0.3c0.5,0.2,0.8,0.5,1.1,0.9s0.5,0.9,0.7,1.5
			c0.1,0.6,0.2,1.3,0.2,2.1H-213.8z"/>
		<path class="st5" d="M-205.6,370.6v7.6c0,0.6,0.1,1.1,0.4,1.4s0.6,0.5,1.1,0.5c0.5,0,0.9-0.2,1.3-0.6c0.4-0.4,0.9-0.9,1.4-1.6
			v-7.4h2.8v11.7h-2.4l-0.1-1.7c-0.2,0.3-0.5,0.6-0.7,0.8c-0.3,0.2-0.5,0.5-0.8,0.6s-0.6,0.3-1,0.4c-0.3,0.1-0.7,0.1-1.2,0.1
			c-0.6,0-1.1-0.1-1.6-0.3c-0.4-0.2-0.8-0.5-1.1-0.8c-0.3-0.4-0.5-0.8-0.7-1.3c-0.1-0.5-0.2-1.1-0.2-1.7v-7.8H-205.6z"/>
		<path class="st5" d="M-186,381.8c-0.6,0.2-1.1,0.4-1.7,0.5c-0.6,0.1-1.2,0.2-1.8,0.2c-0.9,0-1.8-0.1-2.5-0.4s-1.4-0.6-1.9-1.1
			c-0.5-0.5-0.9-1.1-1.2-1.8c-0.3-0.7-0.4-1.6-0.4-2.5c0-0.9,0.1-1.8,0.4-2.5c0.3-0.8,0.7-1.4,1.2-1.9s1.2-0.9,1.9-1.2
			c0.8-0.3,1.6-0.4,2.5-0.4c0.8,0,1.4,0,1.9,0.1c0.5,0.1,1,0.2,1.4,0.3v2.7c-0.5-0.2-1-0.4-1.5-0.6c-0.6-0.1-1.1-0.2-1.6-0.2
			c-0.5,0-1,0.1-1.4,0.3c-0.4,0.2-0.8,0.4-1,0.7c-0.3,0.3-0.5,0.7-0.6,1.1s-0.2,0.9-0.2,1.5c0,0.6,0.1,1.1,0.2,1.5s0.4,0.8,0.7,1.1
			c0.3,0.3,0.6,0.5,1.1,0.7c0.4,0.2,0.9,0.2,1.4,0.2c0.2,0,0.5,0,0.8-0.1c0.3,0,0.5-0.1,0.8-0.1c0.3-0.1,0.5-0.1,0.8-0.2
			s0.5-0.2,0.7-0.3V381.8z"/>
		<path class="st5" d="M-172.9,382.1c-0.5,0.1-1,0.2-1.5,0.3c-0.5,0.1-1,0.1-1.5,0.1c-0.8,0-1.4-0.1-2-0.2c-0.6-0.2-1-0.4-1.4-0.7
			c-0.4-0.3-0.6-0.7-0.8-1.3c-0.2-0.5-0.3-1.1-0.3-1.8v-5.7h-3.1v-2.2h3.1v-3l2.9-0.7v3.7h4.5v2.2h-4.5v5.5c0,0.7,0.2,1.2,0.5,1.5
			c0.3,0.3,0.8,0.5,1.5,0.5c0.5,0,0.9,0,1.3-0.1c0.4-0.1,0.8-0.2,1.2-0.3V382.1z"/>
		<path class="st5" d="M-166.9,370.6v7.6c0,0.6,0.1,1.1,0.4,1.4s0.6,0.5,1.1,0.5c0.5,0,0.9-0.2,1.3-0.6c0.4-0.4,0.9-0.9,1.4-1.6
			v-7.4h2.8v11.7h-2.4l-0.1-1.7c-0.2,0.3-0.5,0.6-0.7,0.8c-0.3,0.2-0.5,0.5-0.8,0.6s-0.6,0.3-1,0.4c-0.3,0.1-0.7,0.1-1.2,0.1
			c-0.6,0-1.1-0.1-1.6-0.3c-0.4-0.2-0.8-0.5-1.1-0.8c-0.3-0.4-0.5-0.8-0.7-1.3c-0.1-0.5-0.2-1.1-0.2-1.7v-7.8H-166.9z"/>
		<path class="st5" d="M-149.2,375.1c0-0.4,0-0.8-0.1-1.1c-0.1-0.3-0.1-0.6-0.3-0.8c-0.1-0.2-0.3-0.3-0.5-0.4
			c-0.2-0.1-0.4-0.1-0.6-0.1c-0.4,0-0.8,0.2-1.3,0.5c-0.4,0.3-0.9,0.9-1.5,1.7v7.4h-2.9v-11.7h2.5l0.1,1.7c0.2-0.3,0.4-0.6,0.6-0.8
			c0.2-0.2,0.5-0.4,0.8-0.6s0.6-0.3,1-0.4s0.8-0.1,1.2-0.1c0.6,0,1.1,0.1,1.6,0.3c0.5,0.2,0.8,0.5,1.1,0.9s0.5,0.9,0.7,1.5
			c0.1,0.6,0.2,1.3,0.2,2.1H-149.2z"/>
		<path class="st5" d="M-133.7,375.5c0,0.2,0,0.4,0,0.7c0,0.3,0,0.6-0.1,0.9h-7.7c0,0.5,0.1,1,0.2,1.4c0.2,0.4,0.4,0.7,0.7,1
			s0.6,0.5,1,0.6s0.8,0.2,1.3,0.2c0.6,0,1.2,0,1.8-0.1s1.3-0.2,2-0.4v2.2c-0.3,0.1-0.6,0.2-1,0.2c-0.4,0.1-0.7,0.1-1.1,0.2
			c-0.4,0.1-0.7,0.1-1.1,0.1c-0.4,0-0.7,0-1.1,0c-0.9,0-1.7-0.1-2.4-0.4c-0.7-0.3-1.3-0.6-1.8-1.1s-0.9-1.1-1.1-1.8
			c-0.3-0.7-0.4-1.6-0.4-2.5c0-0.9,0.1-1.8,0.4-2.6c0.3-0.8,0.6-1.4,1.1-2c0.5-0.6,1-1,1.7-1.3c0.7-0.3,1.4-0.5,2.3-0.5
			c0.8,0,1.6,0.1,2.2,0.4c0.6,0.3,1.2,0.6,1.6,1.1s0.8,1,1,1.6C-133.8,374.1-133.7,374.8-133.7,375.5z M-136.5,375.1
			c0-0.5,0-0.9-0.2-1.2c-0.1-0.3-0.3-0.6-0.5-0.8c-0.2-0.2-0.5-0.4-0.7-0.5c-0.3-0.1-0.6-0.2-0.9-0.2c-0.7,0-1.3,0.2-1.7,0.7
			c-0.5,0.5-0.7,1.1-0.8,2H-136.5z"/>
	</g>
	<g class="st9">
		<path class="st6" d="M-112.5,377.7c0,0.8-0.2,1.5-0.5,2.1c-0.3,0.6-0.7,1.1-1.3,1.5c-0.5,0.4-1.2,0.7-1.9,0.9
			c-0.7,0.2-1.6,0.3-2.5,0.3c-0.8,0-1.5,0-2.3-0.1c-0.7-0.1-1.5-0.2-2.2-0.5v-2.8c0.4,0.1,0.7,0.2,1.1,0.3c0.4,0.1,0.8,0.2,1.2,0.3
			c0.4,0.1,0.8,0.1,1.2,0.2c0.4,0,0.8,0.1,1.1,0.1c0.5,0,1,0,1.4-0.1c0.4-0.1,0.7-0.2,0.9-0.4c0.2-0.2,0.4-0.4,0.5-0.6
			s0.2-0.5,0.2-0.7c0-0.4-0.1-0.7-0.3-0.9c-0.2-0.2-0.5-0.5-0.8-0.7c-0.3-0.2-0.7-0.4-1.2-0.5c-0.4-0.2-0.9-0.3-1.3-0.5
			c-0.5-0.2-0.9-0.4-1.3-0.6c-0.4-0.2-0.8-0.5-1.2-0.8s-0.6-0.7-0.8-1.2c-0.2-0.5-0.3-1-0.3-1.6c0-0.6,0.1-1.1,0.3-1.7
			c0.2-0.5,0.5-1,1-1.4s1-0.7,1.8-0.9s1.6-0.3,2.6-0.3c0.3,0,0.6,0,0.9,0c0.3,0,0.6,0.1,1,0.1c0.3,0,0.6,0.1,0.9,0.1
			c0.3,0.1,0.6,0.1,0.8,0.2v2.6c-0.2-0.1-0.5-0.2-0.8-0.3c-0.3-0.1-0.6-0.1-0.9-0.2c-0.3-0.1-0.6-0.1-0.9-0.1c-0.3,0-0.6,0-0.9,0
			c-0.5,0-0.9,0-1.3,0.1c-0.3,0.1-0.6,0.2-0.8,0.3s-0.4,0.3-0.5,0.5c-0.1,0.2-0.1,0.4-0.1,0.7c0,0.3,0.1,0.6,0.3,0.8
			s0.5,0.4,0.8,0.6c0.3,0.2,0.7,0.3,1.2,0.5c0.4,0.2,0.9,0.3,1.4,0.5c0.5,0.2,0.9,0.4,1.4,0.6s0.8,0.5,1.2,0.8
			c0.3,0.3,0.6,0.7,0.8,1.2S-112.5,377.1-112.5,377.7z"/>
		<path class="st6" d="M-99.2,376.2c0,1.1-0.2,2-0.5,2.8s-0.7,1.4-1.3,1.9c-0.5,0.5-1.2,0.9-1.9,1.1c-0.7,0.2-1.5,0.4-2.4,0.4
			c-0.3,0-0.6,0-0.9-0.1c-0.3,0-0.6-0.1-0.8-0.1v4.6h-2.8v-16.2h2.4l0.1,1.7c0.2-0.3,0.5-0.6,0.7-0.8c0.3-0.2,0.5-0.5,0.8-0.6
			s0.6-0.3,1-0.4c0.3-0.1,0.7-0.1,1.2-0.1c0.7,0,1.3,0.1,1.8,0.4c0.5,0.3,1,0.7,1.3,1.2c0.4,0.5,0.6,1.1,0.8,1.8
			C-99.3,374.5-99.2,375.3-99.2,376.2z M-102.1,376.3c0-0.6,0-1.2-0.1-1.6c-0.1-0.5-0.2-0.8-0.4-1.1c-0.2-0.3-0.4-0.5-0.6-0.6
			c-0.2-0.1-0.5-0.2-0.9-0.2c-0.5,0-0.9,0.2-1.4,0.6c-0.4,0.4-0.9,0.9-1.4,1.6v5.1c0.2,0.1,0.5,0.2,0.8,0.2c0.3,0.1,0.7,0.1,1,0.1
			c0.4,0,0.8-0.1,1.2-0.3c0.4-0.2,0.7-0.4,0.9-0.8c0.3-0.3,0.5-0.7,0.6-1.2C-102.2,377.5-102.1,376.9-102.1,376.3z"/>
		<path class="st6" d="M-86.6,375.5c0,0.2,0,0.4,0,0.7c0,0.3,0,0.6-0.1,0.9h-7.7c0,0.5,0.1,1,0.2,1.4c0.2,0.4,0.4,0.7,0.7,1
			c0.3,0.3,0.6,0.5,1,0.6s0.8,0.2,1.3,0.2c0.6,0,1.2,0,1.8-0.1c0.6-0.1,1.3-0.2,2-0.4v2.2c-0.3,0.1-0.6,0.2-1,0.2
			c-0.4,0.1-0.7,0.1-1.1,0.2c-0.4,0.1-0.7,0.1-1.1,0.1c-0.4,0-0.7,0-1.1,0c-0.9,0-1.7-0.1-2.4-0.4c-0.7-0.3-1.3-0.6-1.8-1.1
			s-0.9-1.1-1.1-1.8c-0.3-0.7-0.4-1.6-0.4-2.5c0-0.9,0.1-1.8,0.4-2.6c0.3-0.8,0.6-1.4,1.1-2c0.5-0.6,1-1,1.7-1.3
			c0.7-0.3,1.4-0.5,2.3-0.5c0.8,0,1.6,0.1,2.2,0.4c0.6,0.3,1.2,0.6,1.6,1.1c0.4,0.5,0.8,1,1,1.6C-86.7,374.1-86.6,374.8-86.6,375.5z
			 M-89.4,375.1c0-0.5,0-0.9-0.2-1.2c-0.1-0.3-0.3-0.6-0.5-0.8c-0.2-0.2-0.5-0.4-0.7-0.5c-0.3-0.1-0.6-0.2-0.9-0.2
			c-0.7,0-1.3,0.2-1.7,0.7c-0.5,0.5-0.7,1.1-0.8,2H-89.4z"/>
		<path class="st6" d="M-74.4,381.8c-0.6,0.2-1.1,0.4-1.7,0.5s-1.2,0.2-1.8,0.2c-0.9,0-1.8-0.1-2.5-0.4c-0.7-0.3-1.4-0.6-1.9-1.1
			s-0.9-1.1-1.2-1.8c-0.3-0.7-0.4-1.6-0.4-2.5c0-0.9,0.1-1.8,0.4-2.5c0.3-0.8,0.7-1.4,1.2-1.9s1.2-0.9,1.9-1.2
			c0.8-0.3,1.6-0.4,2.5-0.4c0.8,0,1.4,0,1.9,0.1c0.5,0.1,1,0.2,1.4,0.3v2.7c-0.5-0.2-1-0.4-1.5-0.6c-0.6-0.1-1.1-0.2-1.6-0.2
			c-0.5,0-1,0.1-1.4,0.3c-0.4,0.2-0.8,0.4-1,0.7c-0.3,0.3-0.5,0.7-0.6,1.1c-0.1,0.4-0.2,0.9-0.2,1.5c0,0.6,0.1,1.1,0.2,1.5
			c0.2,0.4,0.4,0.8,0.7,1.1c0.3,0.3,0.6,0.5,1.1,0.7c0.4,0.2,0.9,0.2,1.4,0.2c0.2,0,0.5,0,0.8-0.1c0.3,0,0.5-0.1,0.8-0.1
			c0.3-0.1,0.5-0.1,0.8-0.2s0.5-0.2,0.7-0.3V381.8z"/>
		<path class="st6" d="M-67.1,372.8h-3.3v-2.2h6.2v9.5h3.4v2.2h-9.9v-2.2h3.7V372.8z M-64,367.4c0,0.3,0,0.5-0.1,0.7
			s-0.2,0.4-0.4,0.6c-0.2,0.2-0.4,0.3-0.6,0.4s-0.5,0.1-0.7,0.1c-0.3,0-0.5,0-0.7-0.1s-0.4-0.2-0.6-0.4c-0.2-0.2-0.3-0.4-0.4-0.6
			s-0.1-0.5-0.1-0.7c0-0.3,0-0.5,0.1-0.7s0.2-0.4,0.4-0.6s0.4-0.3,0.6-0.4s0.5-0.1,0.7-0.1c0.3,0,0.5,0,0.7,0.1s0.4,0.2,0.6,0.4
			c0.2,0.2,0.3,0.4,0.4,0.6S-64,367.2-64,367.4z"/>
		<path class="st6" d="M-47.5,368.4c-0.3-0.1-0.7-0.2-1.2-0.3c-0.5-0.1-0.9-0.1-1.4-0.1c-0.3,0-0.6,0-0.9,0.1
			c-0.3,0.1-0.5,0.2-0.7,0.4c-0.2,0.2-0.4,0.4-0.5,0.7c-0.1,0.3-0.2,0.7-0.2,1.1v1.9h4.6v2.2h-4.6v7.8h-2.8v-7.8h-3.4v-2.2h3.4v-1.8
			c0-0.8,0.1-1.5,0.4-2.1c0.2-0.6,0.6-1.1,1-1.5c0.4-0.4,1-0.7,1.6-0.8s1.3-0.3,2.1-0.3c0.5,0,1,0,1.4,0.1c0.5,0.1,0.9,0.1,1.3,0.2
			V368.4z"/>
		<path class="st6" d="M-41.3,372.8h-3.3v-2.2h6.2v9.5h3.4v2.2H-45v-2.2h3.7V372.8z M-38.2,367.4c0,0.3,0,0.5-0.1,0.7
			s-0.2,0.4-0.4,0.6c-0.2,0.2-0.4,0.3-0.6,0.4s-0.5,0.1-0.7,0.1s-0.5,0-0.7-0.1s-0.4-0.2-0.6-0.4c-0.2-0.2-0.3-0.4-0.4-0.6
			s-0.1-0.5-0.1-0.7c0-0.3,0-0.5,0.1-0.7s0.2-0.4,0.4-0.6c0.2-0.2,0.4-0.3,0.6-0.4s0.5-0.1,0.7-0.1s0.5,0,0.7,0.1s0.4,0.2,0.6,0.4
			s0.3,0.4,0.4,0.6S-38.2,367.2-38.2,367.4z"/>
		<path class="st6" d="M-22.7,381.8c-0.5,0.2-1.1,0.4-1.7,0.5c-0.6,0.1-1.2,0.2-1.8,0.2c-0.9,0-1.8-0.1-2.5-0.4
			c-0.7-0.3-1.4-0.6-1.9-1.1c-0.5-0.5-0.9-1.1-1.2-1.8c-0.3-0.7-0.4-1.6-0.4-2.5c0-0.9,0.1-1.8,0.4-2.5s0.7-1.4,1.2-1.9
			s1.2-0.9,1.9-1.2c0.8-0.3,1.6-0.4,2.5-0.4c0.8,0,1.4,0,1.9,0.1c0.5,0.1,1,0.2,1.4,0.3v2.7c-0.5-0.2-1-0.4-1.5-0.6
			s-1.1-0.2-1.6-0.2c-0.5,0-1,0.1-1.4,0.3s-0.8,0.4-1,0.7s-0.5,0.7-0.6,1.1c-0.1,0.4-0.2,0.9-0.2,1.5c0,0.6,0.1,1.1,0.2,1.5
			c0.2,0.4,0.4,0.8,0.7,1.1s0.6,0.5,1.1,0.7c0.4,0.2,0.9,0.2,1.4,0.2c0.2,0,0.5,0,0.8-0.1c0.3,0,0.5-0.1,0.8-0.1
			c0.3-0.1,0.5-0.1,0.8-0.2s0.5-0.2,0.7-0.3V381.8z"/>
		<path class="st6" d="M-12,382.3l-0.1-1.5c-0.2,0.3-0.5,0.5-0.8,0.7s-0.6,0.4-0.9,0.6c-0.3,0.2-0.7,0.3-1,0.4
			c-0.4,0.1-0.8,0.1-1.2,0.1c-0.6,0-1.1-0.1-1.6-0.3s-0.8-0.4-1.1-0.7c-0.3-0.3-0.5-0.7-0.7-1.1c-0.2-0.4-0.2-0.9-0.2-1.5
			c0-0.6,0.1-1.1,0.3-1.5c0.2-0.5,0.6-0.9,1.1-1.2c0.5-0.3,1.1-0.6,1.8-0.8c0.7-0.2,1.6-0.3,2.5-0.3h1.5v-0.7c0-0.3,0-0.6-0.1-0.8
			s-0.2-0.4-0.4-0.6s-0.4-0.3-0.7-0.4c-0.3-0.1-0.7-0.1-1.1-0.1c-0.7,0-1.4,0.1-2,0.2c-0.7,0.2-1.3,0.4-1.9,0.7v-2.2
			c0.6-0.2,1.2-0.4,1.9-0.6s1.5-0.2,2.3-0.2c0.9,0,1.6,0.1,2.2,0.2c0.6,0.2,1.1,0.4,1.5,0.7c0.4,0.3,0.7,0.7,0.9,1.2
			s0.3,1.1,0.3,1.7v8H-12z M-12.4,377.1h-1.7c-0.5,0-0.9,0-1.2,0.1c-0.3,0.1-0.6,0.2-0.8,0.4c-0.2,0.2-0.4,0.3-0.5,0.6
			c-0.1,0.2-0.1,0.4-0.1,0.7c0,0.5,0.2,0.8,0.5,1.1c0.3,0.2,0.7,0.4,1.2,0.4c0.4,0,0.8-0.1,1.2-0.4c0.4-0.3,0.9-0.7,1.4-1.2V377.1z"
			/>
		<path class="st6" d="M3.3,382.1c-0.5,0.1-1,0.2-1.5,0.3c-0.5,0.1-1,0.1-1.5,0.1c-0.8,0-1.4-0.1-2-0.2c-0.6-0.2-1-0.4-1.4-0.7
			s-0.6-0.7-0.8-1.3c-0.2-0.5-0.3-1.1-0.3-1.8v-5.7h-3.1v-2.2h3.1v-3l2.9-0.7v3.7h4.5v2.2h-4.5v5.5c0,0.7,0.2,1.2,0.5,1.5
			c0.3,0.3,0.8,0.5,1.5,0.5c0.5,0,0.9,0,1.3-0.1s0.8-0.2,1.2-0.3V382.1z"/>
		<path class="st6" d="M10.3,372.8H7v-2.2h6.2v9.5h3.4v2.2H6.6v-2.2h3.7V372.8z M13.4,367.4c0,0.3,0,0.5-0.1,0.7s-0.2,0.4-0.4,0.6
			c-0.2,0.2-0.4,0.3-0.6,0.4s-0.5,0.1-0.7,0.1s-0.5,0-0.7-0.1s-0.4-0.2-0.6-0.4c-0.2-0.2-0.3-0.4-0.4-0.6s-0.1-0.5-0.1-0.7
			c0-0.3,0-0.5,0.1-0.7s0.2-0.4,0.4-0.6c0.2-0.2,0.4-0.3,0.6-0.4s0.5-0.1,0.7-0.1s0.5,0,0.7,0.1s0.4,0.2,0.6,0.4s0.3,0.4,0.4,0.6
			S13.4,367.2,13.4,367.4z"/>
		<path class="st6" d="M30,376.3c0,0.9-0.1,1.8-0.4,2.5s-0.6,1.4-1.1,2c-0.5,0.5-1.1,1-1.8,1.3s-1.5,0.4-2.4,0.4
			c-0.9,0-1.6-0.1-2.3-0.4c-0.7-0.3-1.3-0.6-1.7-1.1c-0.5-0.5-0.8-1.1-1.1-1.9c-0.3-0.8-0.4-1.6-0.4-2.6c0-0.9,0.1-1.8,0.4-2.5
			s0.6-1.4,1.1-1.9s1.1-1,1.8-1.2s1.5-0.4,2.4-0.4c0.9,0,1.6,0.1,2.3,0.4c0.7,0.3,1.3,0.6,1.7,1.1c0.5,0.5,0.8,1.1,1.1,1.9
			C29.8,374.5,30,375.4,30,376.3z M27.1,376.4c0-1.2-0.2-2.1-0.7-2.7c-0.5-0.6-1.1-0.9-2-0.9c-0.5,0-0.9,0.1-1.2,0.3
			c-0.3,0.2-0.6,0.5-0.8,0.8c-0.2,0.3-0.4,0.7-0.5,1.2c-0.1,0.4-0.2,0.9-0.2,1.4c0,1.2,0.2,2.1,0.7,2.7s1.2,0.9,2,0.9
			c0.5,0,0.9-0.1,1.2-0.3c0.3-0.2,0.6-0.4,0.8-0.8c0.2-0.3,0.4-0.7,0.5-1.2C27,377.4,27.1,376.9,27.1,376.4z"/>
		<path class="st6" d="M39.3,382.3v-7.6c0-1.3-0.5-1.9-1.4-1.9c-0.5,0-0.9,0.2-1.4,0.6c-0.4,0.4-0.9,0.9-1.4,1.6v7.4h-2.8v-11.7h2.4
			l0.1,1.7c0.2-0.3,0.5-0.6,0.7-0.8c0.3-0.2,0.5-0.5,0.8-0.6c0.3-0.2,0.6-0.3,1-0.4s0.7-0.1,1.2-0.1c0.6,0,1.1,0.1,1.6,0.3
			c0.4,0.2,0.8,0.5,1.1,0.8s0.5,0.8,0.7,1.3s0.2,1.1,0.2,1.7v7.8H39.3z"/>
		<path class="st6" d="M44.3,371.2c0.8,0,1.4-0.1,1.9-0.3c0.4-0.2,0.6-0.5,0.6-1c0-0.3-0.1-0.5-0.2-0.6c-0.1-0.2-0.2-0.3-0.4-0.5
			s-0.2-0.3-0.4-0.5c-0.1-0.2-0.2-0.4-0.2-0.7c0-0.2,0-0.4,0.1-0.6s0.2-0.4,0.3-0.6c0.1-0.2,0.3-0.3,0.5-0.4s0.5-0.1,0.7-0.1
			c0.3,0,0.6,0.1,0.9,0.2c0.3,0.1,0.5,0.3,0.7,0.6c0.2,0.2,0.3,0.5,0.4,0.9c0.1,0.3,0.1,0.7,0.1,1c0,0.6-0.1,1.2-0.3,1.8
			c-0.2,0.5-0.6,1-1,1.4c-0.4,0.4-1,0.7-1.7,0.9s-1.5,0.3-2.3,0.3V371.2z M50.4,371.2c0.8,0,1.4-0.1,1.8-0.3c0.4-0.2,0.6-0.5,0.6-1
			c0-0.3-0.1-0.5-0.2-0.6c-0.1-0.2-0.2-0.3-0.4-0.5s-0.2-0.3-0.4-0.5c-0.1-0.2-0.2-0.4-0.2-0.7c0-0.2,0-0.4,0.1-0.6
			c0.1-0.2,0.2-0.4,0.3-0.6c0.1-0.2,0.3-0.3,0.5-0.4s0.5-0.1,0.7-0.1c0.3,0,0.6,0.1,0.9,0.2c0.3,0.1,0.5,0.3,0.7,0.6
			s0.3,0.5,0.4,0.9c0.1,0.3,0.1,0.7,0.1,1c0,0.6-0.1,1.2-0.3,1.8s-0.6,1-1,1.4c-0.4,0.4-1,0.7-1.7,0.9s-1.4,0.3-2.3,0.3V371.2z"/>
	</g>
</g>
</svg>
